# This file uses centimeters as units for non-parametric coordinates.

mtllib Lane_1.mtl
g default
v -0.156916 0.075995 0.000000
v 0.000000 0.060540 0.000000
v 0.156916 0.075995 0.000000
v -0.168727 0.016618 0.060541
v 0.000000 0.000000 0.060541
v 0.168727 0.016618 0.060541
v -0.180538 -0.042759 0.000000
v 0.000000 -0.060541 0.000000
v 0.180538 -0.042759 0.000000
v -0.168727 0.016618 -0.060541
v 0.000000 0.000000 -0.060541
v 0.168727 0.016618 -0.060541
vt 0.718750 1.000000
vt 0.687500 1.000000
vt 0.687500 0.750000
vt 0.718750 0.750000
vt 0.750000 1.000000
vt 0.750000 0.750000
vt 0.687500 0.500000
vt 0.718750 0.500000
vt 0.750000 0.500000
vt 0.687500 0.250000
vt 0.718750 0.250000
vt 0.750000 0.250000
vt 0.687500 0.000000
vt 0.718750 0.000000
vt 0.750000 0.000000
vn 0.000000 0.707107 0.707107
vn 0.069476 0.705398 0.705398
vn 0.069476 0.705398 0.705398
vn 0.000000 0.707107 0.707107
vn -0.069475 0.705398 0.705398
vn 0.000000 0.707107 0.707107
vn 0.000000 0.707107 0.707107
vn -0.069475 0.705398 0.705398
vn 0.000000 -0.707107 0.707107
vn -0.069476 -0.705398 0.705398
vn -0.069476 -0.705398 0.705398
vn 0.000000 -0.707107 0.707107
vn 0.069476 -0.705398 0.705398
vn 0.000000 -0.707107 0.707107
vn 0.000000 -0.707107 0.707107
vn 0.069476 -0.705398 0.705398
vn 0.000000 -0.707107 -0.707107
vn -0.069476 -0.705398 -0.705398
vn -0.069476 -0.705398 -0.705398
vn 0.000000 -0.707107 -0.707107
vn 0.069476 -0.705398 -0.705398
vn 0.000000 -0.707107 -0.707107
vn 0.000000 -0.707107 -0.707107
vn 0.069476 -0.705398 -0.705398
vn 0.000000 0.707107 -0.707107
vn 0.069476 0.705398 -0.705398
vn 0.069476 0.705398 -0.705398
vn 0.000000 0.707107 -0.707107
vn -0.069475 0.705398 -0.705398
vn 0.000000 0.707107 -0.707107
vn 0.000000 0.707107 -0.707107
vn -0.069475 0.705398 -0.705398
vn -0.980785 0.195090 0.000000
vn -0.980785 0.195090 0.000000
vn -0.980785 0.195090 0.000000
vn -0.980785 0.195090 0.000000
vn 0.980785 0.195090 0.000000
vn 0.980785 0.195090 0.000000
vn 0.980785 0.195090 0.000000
vn 0.980785 0.195090 0.000000
s off
g initialShadingGroup Lane
f 2/1/1 1/2/2 4/3/3 5/4/4
f 3/5/5 2/1/6 5/4/7 6/6/8
f 5/4/9 4/3/10 7/7/11 8/8/12
f 6/6/13 5/4/14 8/8/15 9/9/16
f 8/8/17 7/7/18 10/10/19 11/11/20
f 9/9/21 8/8/22 11/11/23 12/12/24
f 11/11/25 10/10/26 1/13/27 2/14/28
f 12/12/29 11/11/30 2/14/31 3/15/32
f 4/3/33 1/13/34 10/10/35 7/7/36
f 6/6/37 9/9/38 12/12/39 3/5/40
