# This file uses centimeters as units for non-parametric coordinates.

mtllib 1-16_pipe.mtl
g default
v -0.748322 -0.000000 0.500013
v -0.636396 -0.000000 0.636396
v -0.500013 -0.000000 0.748322
v -0.789896 0.050528 0.527791
v -0.671751 0.050528 0.671751
v -0.527792 0.050528 0.789896
v -0.873043 0.050528 0.583348
v -0.742462 0.050528 0.742462
v -0.583349 0.050528 0.873043
v -0.914616 -0.000000 0.611127
v -0.777817 -0.000000 0.777817
v -0.611127 -0.000000 0.914616
v -0.873043 -0.050528 0.583348
v -0.742462 -0.050528 0.742462
v -0.583349 -0.050528 0.873043
v -0.789896 -0.050528 0.527791
v -0.671751 -0.050528 0.671751
v -0.527792 -0.050528 0.789896
vt 0.562500 1.000000
vt 0.593750 1.000000
vt 0.625000 1.000000
vt 0.562500 0.833333
vt 0.593750 0.833333
vt 0.625000 0.833333
vt 0.562500 0.666667
vt 0.593750 0.666667
vt 0.625000 0.666667
vt 0.562500 0.500000
vt 0.593750 0.500000
vt 0.625000 0.500000
vt 0.562500 0.333333
vt 0.593750 0.333333
vt 0.625000 0.333333
vt 0.562500 0.166667
vt 0.593750 0.166667
vt 0.625000 0.166667
vt 0.562500 -0.000000
vt 0.593750 -0.000000
vt 0.625000 -0.000000
vn 0.502621 0.703381 -0.502620
vn 0.550776 0.701664 -0.452010
vn 0.550776 0.701664 -0.452010
vn 0.502621 0.703381 -0.502620
vn 0.452011 0.701664 -0.550776
vn 0.452011 0.701664 -0.550776
vn -0.000000 1.000000 0.000000
vn -0.000000 1.000000 0.000000
vn -0.000000 1.000000 0.000000
vn -0.000000 1.000000 0.000000
vn -0.000000 1.000000 0.000000
vn -0.000000 1.000000 0.000000
vn -0.502621 0.703381 0.502620
vn -0.550776 0.701664 0.452010
vn -0.550776 0.701664 0.452010
vn -0.502621 0.703381 0.502620
vn -0.452010 0.701664 0.550776
vn -0.452010 0.701664 0.550776
vn -0.502621 -0.703382 0.502620
vn -0.550776 -0.701664 0.452010
vn -0.550776 -0.701664 0.452010
vn -0.502621 -0.703381 0.502620
vn -0.452011 -0.701664 0.550776
vn -0.452011 -0.701664 0.550776
vn 0.000000 -1.000000 -0.000000
vn 0.000000 -1.000000 -0.000000
vn 0.000000 -1.000000 -0.000000
vn 0.000000 -1.000000 -0.000000
vn 0.000000 -1.000000 -0.000000
vn 0.000000 -1.000000 -0.000000
vn 0.502621 -0.703381 -0.502620
vn 0.550776 -0.701664 -0.452010
vn 0.550777 -0.701664 -0.452010
vn 0.502621 -0.703381 -0.502620
vn 0.452010 -0.701664 -0.550776
vn 0.452010 -0.701664 -0.550776
vn -0.555570 0.000000 -0.831470
vn -0.555570 0.000000 -0.831470
vn -0.555570 0.000000 -0.831469
vn -0.555570 0.000000 -0.831470
vn -0.555570 0.000000 -0.831470
vn -0.555570 0.000000 -0.831469
vn 0.831470 0.000000 0.555570
vn 0.831470 0.000000 0.555570
vn 0.831470 0.000000 0.555570
vn 0.831470 0.000000 0.555570
vn 0.831470 0.000000 0.555570
vn 0.831470 0.000000 0.555570
s 1
g pTorus1
usemtl initialShadingGroup
f 2/2/1 1/1/2 4/4/3 5/5/4
f 3/3/5 2/2/1 5/5/4 6/6/6
s 2
f 5/5/7 4/4/8 7/7/9 8/8/10
f 6/6/11 5/5/7 8/8/10 9/9/12
s 3
f 8/8/13 7/7/14 10/10/15 11/11/16
f 9/9/17 8/8/13 11/11/16 12/12/18
s 4
f 11/11/19 10/10/20 13/13/21 14/14/22
f 12/12/23 11/11/19 14/14/22 15/15/24
s 5
f 14/14/25 13/13/26 16/16/27 17/17/28
f 15/15/29 14/14/25 17/17/28 18/18/30
s 6
f 17/17/31 16/16/32 1/19/33 2/20/34
f 18/18/35 17/17/31 2/20/34 3/21/36
s off
f 4/4/37 1/19/38 16/16/39 13/13/40 10/10/41 7/7/42
f 6/6/43 9/9/44 12/12/45 15/15/46 18/18/47 3/3/48
