# This file uses centimeters as units for non-parametric coordinates.

mtllib circle_mesh.mtl
g default
v 0.639482 0.000000 -0.284715
v 0.468391 0.000000 -0.520201
v 0.216312 0.000000 -0.665739
v -0.073170 0.000000 -0.696165
v -0.350000 0.000000 -0.606218
v -0.566312 0.000000 -0.411450
v -0.684703 0.000000 -0.145538
v -0.684703 0.000000 0.145538
v -0.566312 0.000000 0.411450
v -0.350000 0.000000 0.606218
v -0.073170 0.000000 0.696165
v 0.216312 0.000000 0.665740
v 0.468391 0.000000 0.520201
v 0.639482 0.000000 0.284716
v 0.700000 0.000000 0.000000
v 0.828855 0.285317 -0.369030
v 0.607099 0.285317 -0.674251
v 0.280370 0.285317 -0.862889
v -0.094838 0.285317 -0.902325
v -0.453647 0.285317 -0.785740
v -0.734017 0.285317 -0.533295
v -0.887468 0.285317 -0.188637
v -0.887468 0.285317 0.188637
v -0.734017 0.285317 0.533294
v -0.453647 0.285317 0.785740
v -0.094838 0.285317 0.902325
v 0.280370 0.285317 0.862889
v 0.607099 0.285317 0.674251
v 0.828855 0.285317 0.369030
v 0.907295 0.285317 0.000000
v 1.135267 0.176336 -0.505453
v 0.831532 0.176336 -0.923509
v 0.384017 0.176336 -1.181883
v -0.129898 0.176336 -1.235897
v -0.621352 0.176336 -1.076214
v -1.005369 0.176336 -0.730444
v -1.215549 0.176336 -0.258373
v -1.215549 0.176336 0.258373
v -1.005370 0.176336 0.730444
v -0.621353 0.176336 1.076214
v -0.129898 0.176336 1.235897
v 0.384017 0.176336 1.181883
v 0.831532 0.176336 0.923510
v 1.135268 0.176336 0.505454
v 1.242705 0.176336 0.000000
v 1.135267 -0.176336 -0.505453
v 0.831532 -0.176336 -0.923509
v 0.384017 -0.176336 -1.181883
v -0.129898 -0.176336 -1.235897
v -0.621352 -0.176336 -1.076214
v -1.005369 -0.176336 -0.730444
v -1.215549 -0.176336 -0.258373
v -1.215549 -0.176336 0.258373
v -1.005370 -0.176336 0.730444
v -0.621353 -0.176336 1.076214
v -0.129898 -0.176336 1.235897
v 0.384017 -0.176336 1.181883
v 0.831532 -0.176336 0.923510
v 1.135268 -0.176336 0.505454
v 1.242705 -0.176336 0.000000
v 0.828855 -0.285317 -0.369030
v 0.607099 -0.285317 -0.674251
v 0.280370 -0.285317 -0.862888
v -0.094838 -0.285317 -0.902324
v -0.453647 -0.285317 -0.785740
v -0.734017 -0.285317 -0.533295
v -0.887468 -0.285317 -0.188637
v -0.887468 -0.285317 0.188637
v -0.734017 -0.285317 0.533294
v -0.453647 -0.285317 0.785740
v -0.094838 -0.285317 0.902324
v 0.280369 -0.285317 0.862889
v 0.607099 -0.285317 0.674251
v 0.828855 -0.285317 0.369030
v 0.907295 -0.285317 0.000000
vt 0.000000 1.000000
vt 0.066667 1.000000
vt 0.133333 1.000000
vt 0.200000 1.000000
vt 0.266667 1.000000
vt 0.333333 1.000000
vt 0.400000 1.000000
vt 0.466667 1.000000
vt 0.533333 1.000000
vt 0.600000 1.000000
vt 0.666667 1.000000
vt 0.733333 1.000000
vt 0.800000 1.000000
vt 0.866667 1.000000
vt 0.933333 1.000000
vt 1.000000 1.000000
vt 0.000000 0.800000
vt 0.066667 0.800000
vt 0.133333 0.800000
vt 0.200000 0.800000
vt 0.266667 0.800000
vt 0.333333 0.800000
vt 0.400000 0.800000
vt 0.466667 0.800000
vt 0.533333 0.800000
vt 0.600000 0.800000
vt 0.666667 0.800000
vt 0.733333 0.800000
vt 0.800000 0.800000
vt 0.866667 0.800000
vt 0.933333 0.800000
vt 1.000000 0.800000
vt 0.000000 0.600000
vt 0.066667 0.600000
vt 0.133333 0.600000
vt 0.200000 0.600000
vt 0.266667 0.600000
vt 0.333333 0.600000
vt 0.400000 0.600000
vt 0.466667 0.600000
vt 0.533333 0.600000
vt 0.600000 0.600000
vt 0.666667 0.600000
vt 0.733333 0.600000
vt 0.800000 0.600000
vt 0.866667 0.600000
vt 0.933333 0.600000
vt 1.000000 0.600000
vt 0.000000 0.400000
vt 0.066667 0.400000
vt 0.133333 0.400000
vt 0.200000 0.400000
vt 0.266667 0.400000
vt 0.333333 0.400000
vt 0.400000 0.400000
vt 0.466667 0.400000
vt 0.533333 0.400000
vt 0.600000 0.400000
vt 0.666667 0.400000
vt 0.733333 0.400000
vt 0.800000 0.400000
vt 0.866667 0.400000
vt 0.933333 0.400000
vt 1.000000 0.400000
vt 0.000000 0.200000
vt 0.066667 0.200000
vt 0.133333 0.200000
vt 0.200000 0.200000
vt 0.266667 0.200000
vt 0.333333 0.200000
vt 0.400000 0.200000
vt 0.466667 0.200000
vt 0.533333 0.200000
vt 0.600000 0.200000
vt 0.666667 0.200000
vt 0.733333 0.200000
vt 0.800000 0.200000
vt 0.866667 0.200000
vt 0.933333 0.200000
vt 1.000000 0.200000
vt 0.000000 0.000000
vt 0.066667 0.000000
vt 0.133333 0.000000
vt 0.200000 0.000000
vt 0.266667 0.000000
vt 0.333333 0.000000
vt 0.400000 0.000000
vt 0.466667 0.000000
vt 0.533333 0.000000
vt 0.600000 0.000000
vt 0.666667 0.000000
vt 0.733333 0.000000
vt 0.800000 0.000000
vt 0.866667 0.000000
vt 0.933333 0.000000
vt 1.000000 0.000000
vn -0.541338 0.587785 0.601217
vn -0.739074 0.587785 0.329057
vn -0.739074 0.587785 0.329057
vn -0.541338 0.587785 0.601217
vn -0.250000 0.587785 0.769421
vn -0.250000 0.587785 0.769421
vn 0.084565 0.587785 0.804585
vn 0.084565 0.587785 0.804585
vn 0.404508 0.587785 0.700629
vn 0.404508 0.587785 0.700629
vn 0.654508 0.587785 0.475528
vn 0.654508 0.587785 0.475528
vn 0.791338 0.587785 0.168204
vn 0.791338 0.587785 0.168204
vn 0.791338 0.587785 -0.168204
vn 0.791338 0.587785 -0.168204
vn 0.654509 0.587785 -0.475528
vn 0.654509 0.587785 -0.475528
vn 0.404509 0.587785 -0.700629
vn 0.404509 0.587785 -0.700629
vn 0.084565 0.587785 -0.804585
vn 0.084565 0.587785 -0.804585
vn -0.250000 0.587785 -0.769421
vn -0.250000 0.587785 -0.769421
vn -0.541338 0.587785 -0.601217
vn -0.541338 0.587785 -0.601217
vn -0.739074 0.587785 -0.329057
vn -0.739074 0.587785 -0.329057
vn -0.809017 0.587785 0.000000
vn -0.809017 0.587785 0.000000
vn 0.206773 0.951056 -0.229644
vn 0.282301 0.951057 -0.125689
vn 0.282301 0.951057 -0.125689
vn 0.206773 0.951056 -0.229644
vn 0.095492 0.951057 -0.293893
vn 0.095492 0.951056 -0.293893
vn -0.032301 0.951056 -0.307324
vn -0.032301 0.951056 -0.307324
vn -0.154509 0.951057 -0.267617
vn -0.154509 0.951056 -0.267617
vn -0.250000 0.951056 -0.181636
vn -0.250000 0.951056 -0.181636
vn -0.302264 0.951057 -0.064248
vn -0.302264 0.951057 -0.064248
vn -0.302264 0.951057 0.064248
vn -0.302264 0.951057 0.064248
vn -0.250000 0.951057 0.181636
vn -0.250000 0.951057 0.181636
vn -0.154509 0.951056 0.267617
vn -0.154509 0.951057 0.267617
vn -0.032301 0.951057 0.307324
vn -0.032301 0.951057 0.307324
vn 0.095491 0.951057 0.293893
vn 0.095491 0.951057 0.293893
vn 0.206773 0.951057 0.229644
vn 0.206773 0.951057 0.229644
vn 0.282301 0.951057 0.125689
vn 0.282301 0.951057 0.125689
vn 0.309017 0.951056 -0.000000
vn 0.309017 0.951057 -0.000000
vn 0.669131 0.000000 -0.743145
vn 0.913545 0.000000 -0.406737
vn 0.913545 0.000000 -0.406737
vn 0.669131 0.000000 -0.743145
vn 0.309017 0.000000 -0.951056
vn 0.309017 0.000000 -0.951056
vn -0.104528 0.000000 -0.994522
vn -0.104528 0.000000 -0.994522
vn -0.500000 0.000000 -0.866026
vn -0.500000 0.000000 -0.866026
vn -0.809017 0.000000 -0.587785
vn -0.809017 0.000000 -0.587785
vn -0.978148 0.000000 -0.207912
vn -0.978148 0.000000 -0.207912
vn -0.978148 0.000000 0.207912
vn -0.978148 0.000000 0.207912
vn -0.809017 0.000000 0.587785
vn -0.809017 0.000000 0.587785
vn -0.500000 0.000000 0.866025
vn -0.500000 0.000000 0.866025
vn -0.104529 0.000000 0.994522
vn -0.104529 0.000000 0.994522
vn 0.309017 0.000000 0.951057
vn 0.309017 0.000000 0.951057
vn 0.669131 0.000000 0.743145
vn 0.669131 0.000000 0.743145
vn 0.913545 0.000000 0.406737
vn 0.913545 0.000000 0.406737
vn 1.000000 0.000000 -0.000000
vn 1.000000 0.000000 -0.000000
vn 0.206773 -0.951057 -0.229644
vn 0.282301 -0.951057 -0.125689
vn 0.282301 -0.951057 -0.125689
vn 0.206773 -0.951056 -0.229644
vn 0.095492 -0.951057 -0.293893
vn 0.095492 -0.951057 -0.293893
vn -0.032301 -0.951057 -0.307324
vn -0.032301 -0.951056 -0.307324
vn -0.154508 -0.951057 -0.267617
vn -0.154508 -0.951056 -0.267617
vn -0.250000 -0.951056 -0.181636
vn -0.250000 -0.951056 -0.181636
vn -0.302264 -0.951056 -0.064248
vn -0.302264 -0.951056 -0.064248
vn -0.302264 -0.951057 0.064248
vn -0.302264 -0.951057 0.064248
vn -0.250000 -0.951057 0.181636
vn -0.250000 -0.951057 0.181636
vn -0.154508 -0.951057 0.267617
vn -0.154508 -0.951057 0.267617
vn -0.032301 -0.951057 0.307324
vn -0.032301 -0.951057 0.307324
vn 0.095491 -0.951057 0.293893
vn 0.095491 -0.951057 0.293893
vn 0.206773 -0.951057 0.229644
vn 0.206773 -0.951057 0.229644
vn 0.282301 -0.951057 0.125689
vn 0.282301 -0.951057 0.125689
vn 0.309017 -0.951057 -0.000000
vn 0.309017 -0.951057 -0.000000
vn -0.541338 -0.587785 0.601217
vn -0.739074 -0.587785 0.329057
vn -0.739074 -0.587785 0.329057
vn -0.541338 -0.587785 0.601217
vn -0.250000 -0.587785 0.769421
vn -0.250000 -0.587785 0.769421
vn 0.084565 -0.587785 0.804585
vn 0.084565 -0.587785 0.804585
vn 0.404509 -0.587785 0.700629
vn 0.404509 -0.587785 0.700629
vn 0.654508 -0.587785 0.475528
vn 0.654508 -0.587785 0.475528
vn 0.791338 -0.587785 0.168204
vn 0.791338 -0.587785 0.168204
vn 0.791338 -0.587785 -0.168204
vn 0.791338 -0.587785 -0.168204
vn 0.654509 -0.587785 -0.475528
vn 0.654509 -0.587785 -0.475528
vn 0.404509 -0.587785 -0.700629
vn 0.404509 -0.587785 -0.700629
vn 0.084565 -0.587785 -0.804585
vn 0.084565 -0.587785 -0.804585
vn -0.250000 -0.587785 -0.769421
vn -0.250000 -0.587785 -0.769421
vn -0.541338 -0.587785 -0.601217
vn -0.541338 -0.587785 -0.601217
vn -0.739074 -0.587785 -0.329057
vn -0.739074 -0.587785 -0.329057
vn -0.809017 -0.587785 0.000000
vn -0.809017 -0.587785 0.000000
s 1
g pTorus1
usemtl initialShadingGroup
f 2/2/1 1/1/2 16/17/3 17/18/4
f 3/3/5 2/2/1 17/18/4 18/19/6
f 4/4/7 3/3/5 18/19/6 19/20/8
f 5/5/9 4/4/7 19/20/8 20/21/10
f 6/6/11 5/5/9 20/21/10 21/22/12
f 7/7/13 6/6/11 21/22/12 22/23/14
f 8/8/15 7/7/13 22/23/14 23/24/16
f 9/9/17 8/8/15 23/24/16 24/25/18
f 10/10/19 9/9/17 24/25/18 25/26/20
f 11/11/21 10/10/19 25/26/20 26/27/22
f 12/12/23 11/11/21 26/27/22 27/28/24
f 13/13/25 12/12/23 27/28/24 28/29/26
f 14/14/27 13/13/25 28/29/26 29/30/28
f 15/15/29 14/14/27 29/30/28 30/31/30
f 1/16/2 15/15/29 30/31/30 16/32/3
s 2
f 17/18/31 16/17/32 31/33/33 32/34/34
f 18/19/35 17/18/31 32/34/34 33/35/36
f 19/20/37 18/19/35 33/35/36 34/36/38
f 20/21/39 19/20/37 34/36/38 35/37/40
f 21/22/41 20/21/39 35/37/40 36/38/42
f 22/23/43 21/22/41 36/38/42 37/39/44
f 23/24/45 22/23/43 37/39/44 38/40/46
f 24/25/47 23/24/45 38/40/46 39/41/48
f 25/26/49 24/25/47 39/41/48 40/42/50
f 26/27/51 25/26/49 40/42/50 41/43/52
f 27/28/53 26/27/51 41/43/52 42/44/54
f 28/29/55 27/28/53 42/44/54 43/45/56
f 29/30/57 28/29/55 43/45/56 44/46/58
f 30/31/59 29/30/57 44/46/58 45/47/60
f 16/32/32 30/31/59 45/47/60 31/48/33
s 3
f 32/34/61 31/33/62 46/49/63 47/50/64
f 33/35/65 32/34/61 47/50/64 48/51/66
f 34/36/67 33/35/65 48/51/66 49/52/68
f 35/37/69 34/36/67 49/52/68 50/53/70
f 36/38/71 35/37/69 50/53/70 51/54/72
f 37/39/73 36/38/71 51/54/72 52/55/74
f 38/40/75 37/39/73 52/55/74 53/56/76
f 39/41/77 38/40/75 53/56/76 54/57/78
f 40/42/79 39/41/77 54/57/78 55/58/80
f 41/43/81 40/42/79 55/58/80 56/59/82
f 42/44/83 41/43/81 56/59/82 57/60/84
f 43/45/85 42/44/83 57/60/84 58/61/86
f 44/46/87 43/45/85 58/61/86 59/62/88
f 45/47/89 44/46/87 59/62/88 60/63/90
f 31/48/62 45/47/89 60/63/90 46/64/63
s 4
f 47/50/91 46/49/92 61/65/93 62/66/94
f 48/51/95 47/50/91 62/66/94 63/67/96
f 49/52/97 48/51/95 63/67/96 64/68/98
f 50/53/99 49/52/97 64/68/98 65/69/100
f 51/54/101 50/53/99 65/69/100 66/70/102
f 52/55/103 51/54/101 66/70/102 67/71/104
f 53/56/105 52/55/103 67/71/104 68/72/106
f 54/57/107 53/56/105 68/72/106 69/73/108
f 55/58/109 54/57/107 69/73/108 70/74/110
f 56/59/111 55/58/109 70/74/110 71/75/112
f 57/60/113 56/59/111 71/75/112 72/76/114
f 58/61/115 57/60/113 72/76/114 73/77/116
f 59/62/117 58/61/115 73/77/116 74/78/118
f 60/63/119 59/62/117 74/78/118 75/79/120
f 46/64/92 60/63/119 75/79/120 61/80/93
s 5
f 62/66/121 61/65/122 1/81/123 2/82/124
f 63/67/125 62/66/121 2/82/124 3/83/126
f 64/68/127 63/67/125 3/83/126 4/84/128
f 65/69/129 64/68/127 4/84/128 5/85/130
f 66/70/131 65/69/129 5/85/130 6/86/132
f 67/71/133 66/70/131 6/86/132 7/87/134
f 68/72/135 67/71/133 7/87/134 8/88/136
f 69/73/137 68/72/135 8/88/136 9/89/138
f 70/74/139 69/73/137 9/89/138 10/90/140
f 71/75/141 70/74/139 10/90/140 11/91/142
f 72/76/143 71/75/141 11/91/142 12/92/144
f 73/77/145 72/76/143 12/92/144 13/93/146
f 74/78/147 73/77/145 13/93/146 14/94/148
f 75/79/149 74/78/147 14/94/148 15/95/150
f 61/80/122 75/79/149 15/95/150 1/96/123
